<?xml version="1.0" standalone="no"?>
<!DOCTYPE svg PUBLIC "-//W3C//DTD SVG 20010904//EN"
 "http://www.w3.org/TR/2001/REC-SVG-20010904/DTD/svg10.dtd">
<svg version="1.0" xmlns="http://www.w3.org/2000/svg"
 width="258.000000pt" height="258.000000pt" viewBox="0 0 258.000000 258.000000"
 preserveAspectRatio="xMidYMid meet">
<metadata>
Created by potrace 1.14, written by Peter Selinger 2001-2017
</metadata>
<g transform="translate(0.000000,258.000000) scale(0.100000,-0.100000)"
fill="#000000" stroke="none">
<path d="M1070 2409 c-36 -22 -74 -45 -85 -50 -11 -5 -32 -17 -47 -27 -31 -20
-188 -115 -203 -122 -6 -3 -70 -41 -143 -85 -72 -44 -149 -90 -169 -102 -21
-12 -54 -35 -73 -52 -31 -26 -33 -31 -20 -45 8 -8 30 -17 48 -20 17 -4 45 -8
62 -11 16 -3 51 -7 76 -10 26 -3 63 -8 83 -11 20 -4 45 -8 56 -9 11 -2 35 -6
53 -10 31 -7 33 -10 26 -38 -11 -53 -6 -108 17 -173 l22 -62 -21 -50 c-25 -57
-32 -94 -37 -180 -2 -45 -10 -74 -29 -107 -15 -25 -31 -45 -36 -45 -6 0 -10
-6 -10 -14 0 -8 -6 -21 -14 -28 -16 -16 -31 -90 -27 -133 5 -53 37 -98 111
-156 l33 -27 -19 -38 c-11 -22 -41 -75 -65 -120 -61 -108 -111 -230 -107 -261
3 -22 14 -30 72 -52 38 -15 71 -31 73 -38 4 -10 -18 -22 -52 -29 -5 -1 -23 -7
-38 -13 l-28 -11 25 -42 c13 -24 27 -57 31 -75 8 -38 72 -100 112 -109 16 -3
33 -7 38 -9 11 -3 64 24 80 41 5 5 42 35 80 66 39 31 79 65 90 75 11 10 43 36
70 58 28 22 66 53 85 70 20 16 51 41 69 55 19 14 39 30 45 35 14 13 64 45 70
45 3 0 -1 -19 -9 -41 -8 -23 -15 -47 -15 -54 0 -14 49 -40 96 -49 29 -7 33 -4
56 36 14 24 33 64 44 90 18 45 19 46 31 25 19 -34 15 -81 -8 -111 -19 -24 -20
-30 -8 -42 18 -18 80 -25 94 -10 45 48 49 123 11 196 -15 29 -25 54 -22 57 14
15 58 -34 89 -98 l34 -71 37 47 36 48 -25 43 c-14 23 -25 45 -25 48 0 3 20 6
44 6 25 0 48 5 52 12 12 18 11 128 -1 129 -53 6 -68 9 -74 14 -7 8 49 55 67
55 6 0 12 4 12 8 0 5 19 17 41 28 23 10 47 23 53 29 6 5 63 36 126 69 63 32
120 63 127 68 8 7 8 24 -3 69 -17 71 -34 100 -90 155 -48 47 -78 59 -99 37 -8
-8 -15 -12 -15 -9 0 3 -10 -5 -23 -17 -13 -12 -43 -38 -67 -57 -24 -19 -62
-51 -85 -70 -23 -19 -55 -45 -71 -57 -16 -12 -38 -29 -49 -38 -11 -9 -45 -33
-75 -55 -30 -22 -60 -45 -67 -50 -7 -6 -16 -10 -20 -10 -4 0 -21 -11 -38 -24
l-30 -24 -60 52 c-141 121 -154 145 -118 206 21 37 48 43 149 35 75 -7 86 -5
113 14 29 21 33 32 46 119 4 24 15 51 26 61 17 16 19 46 4 71 -3 5 4 14 16 20
16 9 20 18 16 38 -4 22 2 34 34 63 21 20 39 41 39 46 0 6 -17 32 -38 59 -43
54 -60 96 -56 134 17 149 16 162 -20 270 -19 57 -33 107 -30 111 2 4 24 19 49
32 l45 26 1 -52 c1 -103 9 -309 13 -333 8 -42 15 -46 76 -41 32 2 63 7 68 11
11 6 9 156 -2 213 -3 15 -8 46 -11 68 -3 22 -7 47 -10 55 -2 8 -6 26 -9 40
-14 69 -17 84 -22 92 -3 5 7 18 22 31 51 42 84 75 84 86 0 12 -21 19 -83 26
-27 3 -57 10 -68 15 -11 6 -33 7 -56 2 -41 -9 -341 -8 -493 2 l-95 6 -65 -41z"/>
</g>
</svg>
